<svg xmlns="http://www.w3.org/2000/svg" width="20" height="20" viewBox="0 0 20 20"><g transform="translate(-4.489 -0.438)"><path d="M22.032,191.991c-8.507,4.315-13.786.7-17.166-1.488-.209-.138-.565.032-.256.41,1.126,1.455,4.816,4.962,9.632,4.962a10.9,10.9,0,0,0,8.045-3.291c.356-.485.1-.752-.255-.592Zm2.389-1.406c-.228-.317-1.389-.376-2.12-.281s-1.83.569-1.734.855c.049.107.149.059.652.011s1.916-.243,2.21.166-.45,2.378-.586,2.7.05.4.3.188a4.121,4.121,0,0,0,.981-1.531,3.793,3.793,0,0,0,.3-2.1Z" transform="translate(0 -175.436)" fill="#f90"/><path d="M59.268,9.716a6.092,6.092,0,0,1-.5,3.082,2.175,2.175,0,0,1-1.859,1.32c-1.031,0-1.632-.85-1.632-2.1,0-2.477,2.051-2.926,3.993-2.926ZM61.977,16.8a.527.527,0,0,1-.635.069A7.037,7.037,0,0,1,59.8,14.931a5.144,5.144,0,0,1-4.428,2.113c-2.259,0-4.02-1.508-4.02-4.528a4.958,4.958,0,0,1,2.864-4.749,17.358,17.358,0,0,1,5.051-1.009V6.381a4.009,4.009,0,0,0-.325-2.1,1.747,1.747,0,0,0-1.507-.756,2.077,2.077,0,0,0-2.161,1.745c-.045.262-.223.519-.465.531l-2.607-.3a.51.51,0,0,1-.4-.609C52.4,1.468,55.256.438,57.81.438a5.794,5.794,0,0,1,4.046,1.447c1.307,1.32,1.182,3.082,1.182,5v4.528a4.144,4.144,0,0,0,1.012,2.693.578.578,0,0,1-.008.772c-.548.494-1.522,1.414-2.059,1.929l-.008-.008" transform="translate(-42.971 0)" fill-rule="evenodd"/><path d="M22.032,191.991c-8.507,4.315-13.786.7-17.166-1.488-.209-.138-.565.032-.256.41,1.126,1.455,4.816,4.962,9.632,4.962a10.9,10.9,0,0,0,8.045-3.291c.356-.485.1-.752-.255-.592Zm2.389-1.406c-.228-.317-1.389-.376-2.12-.281s-1.83.569-1.734.855c.049.107.149.059.652.011s1.916-.243,2.21.166-.45,2.378-.586,2.7.05.4.3.188a4.121,4.121,0,0,0,.981-1.531,3.793,3.793,0,0,0,.3-2.1Z" transform="translate(0 -175.436)" fill="#f90"/><path d="M59.268,9.716a6.092,6.092,0,0,1-.5,3.082,2.175,2.175,0,0,1-1.859,1.32c-1.031,0-1.632-.85-1.632-2.1,0-2.477,2.051-2.926,3.993-2.926ZM61.977,16.8a.527.527,0,0,1-.635.069A7.037,7.037,0,0,1,59.8,14.931a5.144,5.144,0,0,1-4.428,2.113c-2.259,0-4.02-1.508-4.02-4.528a4.958,4.958,0,0,1,2.864-4.749,17.358,17.358,0,0,1,5.051-1.009V6.381a4.009,4.009,0,0,0-.325-2.1,1.747,1.747,0,0,0-1.507-.756,2.077,2.077,0,0,0-2.161,1.745c-.045.262-.223.519-.465.531l-2.607-.3a.51.51,0,0,1-.4-.609C52.4,1.468,55.256.438,57.81.438a5.794,5.794,0,0,1,4.046,1.447c1.307,1.32,1.182,3.082,1.182,5v4.528a4.144,4.144,0,0,0,1.012,2.693.578.578,0,0,1-.008.772c-.548.494-1.522,1.414-2.059,1.929l-.008-.008" transform="translate(-42.971 0)" fill-rule="evenodd"/></g></svg>