<svg xmlns="http://www.w3.org/2000/svg" width="20" height="20" viewBox="0 0 20 20"><path d="M17.087,325.029v1.414h.5V325.5h1.835v.942h.5v-1.412Zm.448-.457h1.939A.683.683,0,0,0,20,324.1H17.009a.686.686,0,0,0,.526.469m-1.976,1.873a.673.673,0,0,0,.443-.461H13.741V324.1h-.507v2.339Zm-6.095-1.879h1.791a.756.756,0,0,0,.552-.461H8.962v1.382h2.328v.485H9.464a1,1,0,0,0-.65.473l.148,0h2.829v-1.416H9.464Zm-4.421,0H6.982a.683.683,0,0,0,.526-.469H4.517a.686.686,0,0,0,.526.469m0,.924H6.982a.682.682,0,0,0,.526-.469H4.517a.685.685,0,0,0,.526.469m0,.95H6.982a.683.683,0,0,0,.526-.469H4.517a.686.686,0,0,0,.526.469M0,324.107a.691.691,0,0,0,.525.466h.816l.042.015v1.852h.51v-1.852l.046-.015h.817a.7.7,0,0,0,.523-.466v0H0Z" transform="translate(0 -306.446)" fill="#e82127"/><path d="M32.147,39.276l2.6-12.878c2.477,0,3.258.239,3.371,1.216a5.894,5.894,0,0,0,2.5-1.655,20.49,20.49,0,0,0-6.556-1.4l-1.917,2.058h0L30.23,24.564a20.488,20.488,0,0,0-6.556,1.4,5.89,5.89,0,0,0,2.5,1.655c.113-.977.894-1.216,3.354-1.218Z" transform="translate(-22.146 -22.979)" fill="#e82127"/><path d="M21.734.991a23.469,23.469,0,0,1,8.675,1.55,5.982,5.982,0,0,0,.515-.947,27.282,27.282,0,0,0-18.381,0,7.559,7.559,0,0,0,.515.947A23.466,23.466,0,0,1,21.734.991Z" transform="translate(-11.734 0)" fill="#e82127"/></svg>