<svg xmlns="http://www.w3.org/2000/svg" width="74.93" height="17.81" viewBox="0 0 74.93 17.81"><g transform="translate(384.5 -305.5)"><path d="M319.747,311.5a.763.763,0,0,0,.807-.5l.412-4.66c0-.461-.54-.839-1.218-.839s-1.217.378-1.217.839l.412,4.66a.76.76,0,0,0,.805.5h0m-2.518,1.455A.76.76,0,0,0,317.2,312l-3.83-2.687c-.4-.231-1,.047-1.334.635s-.28,1.242.117,1.473L316.4,313.4a.767.767,0,0,0,.834-.452v0m5.039,0a.767.767,0,0,0,.834.452l4.241-1.975c.4-.231.456-.886.12-1.473s-.939-.865-1.336-.635L322.3,312a.763.763,0,0,0-.027.947v0m-2.521,4.368a.762.762,0,0,1,.807.5l.412,4.659c0,.462-.54.839-1.218.839s-1.217-.377-1.217-.839l.412-4.659a.759.759,0,0,1,.805-.5h0m2.521-1.456a.763.763,0,0,1,.834-.45l4.241,1.973c.4.231.456.887.12,1.474s-.939.864-1.336.634l-3.83-2.684a.766.766,0,0,1-.027-.948h0m-5.039,0a.762.762,0,0,1-.027.948l-3.83,2.684c-.4.23-1-.049-1.334-.634s-.28-1.244.117-1.474l4.241-1.973a.763.763,0,0,1,.834.45h0" transform="translate(-638.429)" fill="#fdbb30"/><path d="M-342.84,358.015a1.482,1.482,0,0,1-.052.42,1.471,1.471,0,0,1-1.416.993.958.958,0,0,1-1.043-1.027c0-1.067,1.174-1.361,2.511-1.354v.968Zm2.1-1.859c0-1.759-.752-3.307-3.292-3.307a6.011,6.011,0,0,0-2.9.693l.414,1.414a4.251,4.251,0,0,1,2.117-.6c1.288,0,1.5.73,1.5,1.2v.111c-2.808,0-4.584.968-4.584,2.949a2.339,2.339,0,0,0,2.476,2.344,2.812,2.812,0,0,0,2.259-1h.048s.32,1.342,2.089.829a11.407,11.407,0,0,1-.123-1.87v-2.762m-43.757-5.7s1.835,7.52,2.128,8.74c.342,1.424.958,1.949,2.733,1.595l1.146-4.662c.291-1.159.485-1.985.672-3.162h.033a30.924,30.924,0,0,0,.557,3.166s.466,2.117.705,3.228.906,1.812,2.645,1.43l2.73-10.335h-2.2l-.933,4.469c-.251,1.3-.478,2.317-.653,3.507h-.031c-.159-1.179-.362-2.154-.617-3.422l-.97-4.554h-2.3l-1.038,4.439c-.294,1.349-.569,2.438-.744,3.588h-.032c-.179-1.083-.418-2.452-.676-3.757,0,0-.616-3.175-.833-4.27H-384.5m17.519,7.562a1.46,1.46,0,0,1-.052.42,1.471,1.471,0,0,1-1.416.993.958.958,0,0,1-1.042-1.027c0-1.067,1.174-1.361,2.511-1.354v.968Zm2.1-1.859c0-1.759-.752-3.307-3.291-3.307a6.013,6.013,0,0,0-2.9.693l.413,1.414a4.25,4.25,0,0,1,2.118-.6c1.289,0,1.5.73,1.5,1.2v.111c-2.81,0-4.584.968-4.584,2.949a2.338,2.338,0,0,0,2.474,2.344,2.814,2.814,0,0,0,2.26-1h.047s.321,1.342,2.089.829a11.394,11.394,0,0,1-.123-1.87v-2.762m3.5,2.438v-8.141h-2.1v10.335h2.1v-2.194m27.46-8.141v7.624a3.2,3.2,0,0,0,.621,2.238,2.326,2.326,0,0,0,1.709.649,5,5,0,0,0,1.519-.225l-.027-1.64a3.208,3.208,0,0,1-.8.095c-.715,0-.954-.458-.954-1.4v-2.917h1.828V352.9h-1.828v-2.444h-2.07m-5.418,2.571v7.764h2.165v-3.975a2.945,2.945,0,0,1,.047-.573,1.634,1.634,0,0,1,1.712-1.365,4.035,4.035,0,0,1,.625.055V352.9a2.111,2.111,0,0,0-.477-.048,2.285,2.285,0,0,0-2.113,1.64h-.059v-1.465h-1.9m-20.572,0v7.764h2.11v-4.553a1.832,1.832,0,0,1,.1-.635,1.429,1.429,0,0,1,1.282-1c.852,0,1.249.72,1.249,1.758v4.425h2.108V356.18a2.146,2.146,0,0,1,.088-.629,1.33,1.33,0,0,1,1.266-.946c.863,0,1.277.707,1.277,1.93v4.254h2.109v-4.573c0-2.411-1.225-3.366-2.607-3.366a2.815,2.815,0,0,0-1.532.421,3.285,3.285,0,0,0-.984.968h-.031a2.214,2.214,0,0,0-2.14-1.388,2.444,2.444,0,0,0-2.261,1.23h-.031v-1.055h-2" transform="translate(0 -41.216)" fill="#1a75cf"/><path d="M507.375,466.11h.032c.042,0,.069-.017.069-.043s-.025-.046-.065-.046c-.013,0-.027,0-.036,0v.087h0Zm0,.209h-.112v-.365a.888.888,0,0,1,.161-.014.247.247,0,0,1,.147.03.094.094,0,0,1,.039.08c0,.037-.034.069-.085.083v0a.107.107,0,0,1,.076.094.369.369,0,0,0,.025.088h-.127a.243.243,0,0,1-.025-.078c-.007-.037-.025-.055-.062-.055h-.037Zm.046-.484a.3.3,0,1,0,.292.3.286.286,0,0,0-.292-.3Zm.007-.1a.4.4,0,1,1-.412.395.4.4,0,0,1,.412-.395h0" transform="translate(-817.398 -146.915)" fill="#fdbb30"/></g></svg>