<svg xmlns="http://www.w3.org/2000/svg" width="32.697" height="23.875" viewBox="0 0 32.697 23.875"><g transform="translate(0 0)"><path d="M42.455,282.427h8.908a.479.479,0,1,0,0-.958H42.455a.479.479,0,1,0,0,.958Z" transform="translate(-39.295 -267.903)" fill="#fff"/><path d="M42.455,315.617h8.908a.479.479,0,1,0,0-.958H42.455a.479.479,0,1,0,0,.958Z" transform="translate(-39.295 -298.973)" fill="#fff"/><path d="M42.455,116.4a.479.479,0,0,0-.479.479v2.479a1.361,1.361,0,0,0,1.359,1.359h7.148a1.361,1.361,0,0,0,1.359-1.359V112.4a1.361,1.361,0,0,0-1.359-1.359H43.335a1.361,1.361,0,0,0-1.359,1.359v2.245a.479.479,0,0,0,.958,0V112.4a.4.4,0,0,1,.4-.4h7.148a.4.4,0,0,1,.4.4v6.963a.4.4,0,0,1-.4.4h-.331v-.45a3.235,3.235,0,0,0-1.407-2.675,2.225,2.225,0,1,0-3.671,0,3.235,3.235,0,0,0-1.407,2.675v.45h-.331a.4.4,0,0,1-.4-.4v-2.479A.479.479,0,0,0,42.455,116.4Zm4.454-2.292a1.267,1.267,0,0,1,.776,2.268l0,0a1.267,1.267,0,0,1-1.541,0l-.006,0a1.267,1.267,0,0,1,.776-2.268Zm-2.285,5.2a2.28,2.28,0,0,1,1.181-2,2.229,2.229,0,0,0,2.208,0,2.28,2.28,0,0,1,1.181,2v.45h-4.57Z" transform="translate(-39.295 -108.359)" fill="#fff"/><path d="M30.58,72.613v-1.7a1.855,1.855,0,0,0-1.853-1.853H1.853A1.855,1.855,0,0,0,0,70.916v16.92a1.855,1.855,0,0,0,1.853,1.853H9.31a.479.479,0,1,0,0-.958H1.853a.9.9,0,0,1-.895-.895V70.916a.9.9,0,0,1,.895-.895H28.727a.9.9,0,0,1,.895.895V71.9a6.377,6.377,0,0,0-9.543,6.734,1.492,1.492,0,0,0-.994.436h0a1.5,1.5,0,0,0-.024,2.093l-7.9,7.9a1.394,1.394,0,0,0-.411.985l-.008,1.571a1.315,1.315,0,0,0,1.316,1.323h.007l1.571-.008a1.394,1.394,0,0,0,.985-.411l.254-.254a1.189,1.189,0,0,0,.346-.885l-.036-.907a.228.228,0,0,1,.243-.236l.845.057a1.187,1.187,0,0,0,.918-.345,2.472,2.472,0,0,0,.444-.505,1.185,1.185,0,0,0,.153-.63l-.036-.907A.228.228,0,0,1,18,87.672l.845.057a1.189,1.189,0,0,0,.918-.345l.254-.254a1.189,1.189,0,0,0,.346-.885l-.036-.907a.228.228,0,0,1,.243-.236l.845.057a1.186,1.186,0,0,0,.918-.345l.2-.2a1.5,1.5,0,0,0,2.425-1.033,6.423,6.423,0,0,0,4.67-.769v5.019a.9.9,0,0,1-.895.895H19.409a.479.479,0,1,0,0,.958h9.318a1.855,1.855,0,0,0,1.853-1.853V82.108a6.381,6.381,0,0,0,0-9.5Zm-9.1,11.59-.844-.057a1.186,1.186,0,0,0-1.265,1.23l.036.907a.228.228,0,0,1-.066.17l-.254.254a.226.226,0,0,1-.176.066l-.845-.057a1.186,1.186,0,0,0-1.265,1.23l.036.907a.228.228,0,0,1-.066.17l-.25.25a.226.226,0,0,1-.176.066l-.845-.057a1.186,1.186,0,0,0-1.265,1.23l.036.907a.228.228,0,0,1-.066.17l-.254.254a.442.442,0,0,1-.312.13l-1.571.008h0a.358.358,0,0,1-.358-.36l.008-1.571a.441.441,0,0,1,.13-.312l7.895-7.895,2.1,2.1-.189.189a.225.225,0,0,1-.176.066Zm2.364-.374a.54.54,0,0,1-.763,0l-3.316-3.316a.539.539,0,0,1,.763-.763l0,0,3.314,3.314A.54.54,0,0,1,23.841,83.829Zm.781-1.325c-.075-.092-3.439-3.45-3.446-3.456a5.418,5.418,0,1,1,8.62,2.471l0,0A5.442,5.442,0,0,1,24.623,82.5Z" transform="translate(0 -69.063)" fill="#fff"/><path d="M408.88,143.157a2.017,2.017,0,1,0,0,2.853h0A2.016,2.016,0,0,0,408.88,143.157Zm-2.155,2.195h0l-.008-.008,0,0-.01-.009a1.058,1.058,0,1,1,.02.019Z" transform="translate(-379.542 -137.872)" fill="#fff"/></g></svg>