<svg xmlns="http://www.w3.org/2000/svg" width="6" height="12" viewBox="0 0 6 12"><g transform="translate(-117.329)"><path d="M123.076,12a.245.245,0,0,1-.177-.076l-5.5-5.738a.269.269,0,0,1,0-.369L122.9.08a.243.243,0,0,1,.353-.006.269.269,0,0,1,.006.369l-.006.006L117.932,6l5.321,5.553a.269.269,0,0,1,0,.369A.245.245,0,0,1,123.076,12Z" transform="translate(0 0)" fill="#828282"/><path d="M123.076,12a.245.245,0,0,1-.177-.076l-5.5-5.738a.269.269,0,0,1,0-.369L122.9.08a.243.243,0,0,1,.353-.006.269.269,0,0,1,.006.369l-.006.006L117.932,6l5.321,5.553a.269.269,0,0,1,0,.369A.245.245,0,0,1,123.076,12Z" transform="translate(0 0)" fill="#828282"/></g></svg>