<svg xmlns="http://www.w3.org/2000/svg" width="21.901" height="20.821" viewBox="0 0 21.901 20.821"><g transform="translate(21.901 43.249) rotate(180)"><g transform="translate(6.997 30.633)"><path d="M163.821,204.055l-2.251-1.59a.616.616,0,0,0-.969.5v.969H149.819a.616.616,0,1,0,0,1.23h10.787v.969a.616.616,0,0,0,.969.5l2.251-1.59a.616.616,0,0,0,0-1Z" transform="translate(-149.174 -202.354)" fill="#eb5937"/></g><g transform="translate(0 22.428)"><g transform="translate(0 0)"><path d="M18.546,37.133a.636.636,0,0,0-.883.245A8.648,8.648,0,0,1,7.8,41.61a9.169,9.169,0,0,1,0-17.544A8.648,8.648,0,0,1,17.662,28.3a.633.633,0,0,0,.848.186.682.682,0,0,0,.264-.856A9.922,9.922,0,0,0,7.457,22.773a10.521,10.521,0,0,0,0,20.129,9.922,9.922,0,0,0,11.318-4.854.683.683,0,0,0-.23-.916Z" transform="translate(0 -22.428)" fill="#eb5937"/></g></g></g></svg>