<svg xmlns="http://www.w3.org/2000/svg" width="32.02" height="32.491" viewBox="0 0 32.02 32.491">
  <g id="menu-icon-mobile" transform="translate(-2.612)">
    <g id="Grupo_14" data-name="Grupo 14" transform="translate(2.612)">
      <path id="Caminho_31" data-name="Caminho 31" d="M11.088,0H3.554a.942.942,0,0,0-.942.942V8.476a.942.942,0,0,0,.942.942h7.534a.942.942,0,0,0,.942-.942V.942A.942.942,0,0,0,11.088,0Z" transform="translate(-2.612)" fill="#fff"/>
      <path id="Caminho_32" data-name="Caminho 32" d="M136.476,0h-7.534A.942.942,0,0,0,128,.942V8.476a.942.942,0,0,0,.942.942h7.534a.942.942,0,0,0,.942-.942V.942A.942.942,0,0,0,136.476,0Z" transform="translate(-116.699)" fill="#fff"/>
      <path id="Caminho_33" data-name="Caminho 33" d="M11.088,125.388H3.554a.942.942,0,0,0-.942.942v7.534a.942.942,0,0,0,.942.942h7.534a.942.942,0,0,0,.942-.942V126.33a.942.942,0,0,0-.942-.942Z" transform="translate(-2.612 -114.087)" fill="#fff"/>
      <path id="Caminho_34" data-name="Caminho 34" d="M136.476,125.388h-7.534a.942.942,0,0,0-.942.942v7.534a.942.942,0,0,0,.942.942h7.534a.942.942,0,0,0,.942-.942V126.33a.942.942,0,0,0-.942-.942Z" transform="translate(-116.699 -114.087)" fill="#fff"/>
      <path id="Caminho_35" data-name="Caminho 35" d="M261.864,0H254.33a.942.942,0,0,0-.942.942V8.476a.942.942,0,0,0,.942.942h7.534a.942.942,0,0,0,.942-.942V.942A.942.942,0,0,0,261.864,0Z" transform="translate(-230.786)" fill="#fff"/>
      <path id="Caminho_36" data-name="Caminho 36" d="M261.864,125.388H254.33a.942.942,0,0,0-.942.942v7.534a.942.942,0,0,0,.942.942h7.534a.942.942,0,0,0,.942-.942V126.33a.942.942,0,0,0-.942-.942Z" transform="translate(-230.786 -114.087)" fill="#fff"/>
      <path id="Caminho_37" data-name="Caminho 37" d="M11.088,256H3.554a.942.942,0,0,0-.942.942v7.534a.942.942,0,0,0,.942.942h7.534a.942.942,0,0,0,.942-.942v-7.534a.942.942,0,0,0-.942-.942Z" transform="translate(-2.612 -232.927)" fill="#fff"/>
      <path id="Caminho_38" data-name="Caminho 38" d="M136.476,256h-7.534a.942.942,0,0,0-.942.942v7.534a.942.942,0,0,0,.942.942h7.534a.942.942,0,0,0,.942-.942v-7.534a.942.942,0,0,0-.942-.942Z" transform="translate(-116.699 -232.927)" fill="#fff"/>
      <path id="Caminho_39" data-name="Caminho 39" d="M261.864,256H254.33a.942.942,0,0,0-.942.942v7.534a.942.942,0,0,0,.942.942h7.534a.942.942,0,0,0,.942-.942v-7.534a.942.942,0,0,0-.942-.942Z" transform="translate(-230.786 -232.927)" fill="#fff"/>
    </g>
  </g>
</svg>
