<svg xmlns="http://www.w3.org/2000/svg" width="19" height="29" viewBox="0 0 19 29"><g transform="translate(53.569 28.5) rotate(-180)" opacity="0.6"><g transform="translate(35.069)"><path d="M44.069,0a9.179,9.179,0,0,0-9,9.329v9.343a9.006,9.006,0,1,0,18,0V9.329A9.179,9.179,0,0,0,44.069,0Zm8,18.672a8.005,8.005,0,1,1-16,0V9.329a8.005,8.005,0,1,1,16,0Z" transform="translate(-35.069)" fill="#fff" stroke="#fbbc04" stroke-width="1"/><path d="M101.83,23.379a.52.52,0,0,0-.52.52v4.709a.52.52,0,0,0,1.04,0V23.9A.52.52,0,0,0,101.83,23.379Z" transform="translate(-92.83 -20.259)" fill="#fff" stroke="#fbbc04" stroke-width="1"/></g></g></svg>