<svg xmlns="http://www.w3.org/2000/svg" width="39" height="39" viewBox="0 0 39 39"><g transform="translate(-0.5 -0.001)"><path d="M12.428,143.8l-.074,0-10.737-.67a1.19,1.19,0,0,1-.964-1.769,17.56,17.56,0,0,1,3.987-4.568,12.876,12.876,0,0,1,11.707-2.637,1.19,1.19,0,0,1,.766,1.68l-3.618,7.305a1.19,1.19,0,0,1-1.066.662Zm0,0" transform="translate(0 -123.525)" fill="#ff5b5b"/><path d="M248.166,309.024a1.19,1.19,0,0,1-1.188-1.116l-.67-10.737a1.19,1.19,0,0,1,.659-1.141l7.305-3.619a1.19,1.19,0,0,1,1.68.767,12.875,12.875,0,0,1-2.637,11.707,17.562,17.562,0,0,1-4.568,3.987,1.19,1.19,0,0,1-.582.152Zm0,0" transform="translate(-227.082 -270.023)" fill="#ff193d"/><path d="M121.785,28.527l-7.693-7.693a1.19,1.19,0,0,0-1.179-.3,29.156,29.156,0,0,0-12.567,7.1,24.16,24.16,0,0,0-1.9,2.143A29.468,29.468,0,0,0,94.156,37.5a38.9,38.9,0,0,0-1.725,5.941,36.371,36.371,0,0,0-.8,6.335,1.19,1.19,0,0,0,1.19,1.2h.015a36.311,36.311,0,0,0,6.335-.8,38.881,38.881,0,0,0,5.941-1.725,29.465,29.465,0,0,0,7.723-4.291,24.09,24.09,0,0,0,2.143-1.9,29.15,29.15,0,0,0,7.1-12.567,1.189,1.189,0,0,0-.3-1.179Zm0,0" transform="translate(-84.194 -18.924)" fill="#e1f1fa"/><path d="M49.462,312.749,43.7,306.985a1.19,1.19,0,0,0-1.576-.095,11.591,11.591,0,0,0-1.041.921c-4.011,4.011-4.135,10.225-4.138,10.487a1.19,1.19,0,0,0,1.19,1.205h.015c.262,0,6.477-.127,10.487-4.138a11.593,11.593,0,0,0,.921-1.041,1.19,1.19,0,0,0-.095-1.576Zm0,0" transform="translate(-33.668 -283.279)" fill="#fff261"/><path d="M78.815,240.762,75.279,244.3a1.189,1.189,0,0,0,0,1.682L84.7,255.4a1.19,1.19,0,0,0,1.682,0l3.536-3.536Zm0,0" transform="translate(-68.76 -222.422)" fill="#1b3b6b"/><path d="M284.6,143.51a3.63,3.63,0,1,1,2.567-1.063A3.606,3.606,0,0,1,284.6,143.51Zm0,0" transform="translate(-259.109 -125.871)" fill="#06ccab"/><path d="M270.5,130.563a4.793,4.793,0,1,1,3.389-1.4,4.762,4.762,0,0,1-3.389,1.4Zm0-7.207a2.414,2.414,0,1,0,1.707.707A2.4,2.4,0,0,0,270.5,123.356Zm0,0" transform="translate(-245.003 -111.76)" fill="#1b3b6b"/><path d="M381.4.35A1.184,1.184,0,0,0,380.545,0a38.853,38.853,0,0,0-9.576,1.609l9.172,9.172a38.852,38.852,0,0,0,1.609-9.576A1.189,1.189,0,0,0,381.4.35Zm0,0" transform="translate(-342.249 0)" fill="#ff5b5b"/><path d="M126.012,79.406l-3.847-3.847L96.211,101.513a1.19,1.19,0,0,0,.841.348h.015a36.318,36.318,0,0,0,6.335-.8,38.877,38.877,0,0,0,5.941-1.725,29.461,29.461,0,0,0,7.724-4.291,24.087,24.087,0,0,0,2.143-1.9,29.15,29.15,0,0,0,7.1-12.567,1.189,1.189,0,0,0-.3-1.179Zm0,0" transform="translate(-88.42 -69.803)" fill="#cdebfc"/><path d="M53.685,351.929,50.8,349.047l-9.288,9.288h0a1.191,1.191,0,0,0,.841.348h.015c.263,0,6.477-.128,10.488-4.138a11.541,11.541,0,0,0,.921-1.041,1.189,1.189,0,0,0-.095-1.576Zm0,0" transform="translate(-37.891 -322.459)" fill="#fdbf00"/><path d="M145.741,313.664l-4.378,4.378,4.712,4.712a1.19,1.19,0,0,0,1.682,0l3.536-3.537Zm0,0" transform="translate(-130.133 -289.771)" fill="#001035"/><path d="M300.04,150.207h0l-5.133,5.133h0a3.63,3.63,0,1,0,5.133-5.133Zm0,0" transform="translate(-271.981 -138.764)" fill="#1cadb5"/><path d="M290.88,139.406l-1.683,1.683a2.414,2.414,0,1,1-3.413,3.413h0l-1.683,1.683h0a4.793,4.793,0,0,0,6.779-6.779Zm0,0" transform="translate(-261.999 -128.786)" fill="#001035"/><path d="M437.018,4.574l-5.846,5.846,4.586,4.586a38.852,38.852,0,0,0,1.609-9.576,1.189,1.189,0,0,0-.348-.857Zm0,0" transform="translate(-397.867 -4.225)" fill="#ff193d"/></g></svg>