<svg xmlns="http://www.w3.org/2000/svg" width="277" height="84.22" viewBox="0 0 277 84.22"><g transform="translate(-163.5 -263.1)"><path d="M337.784,329.973c-16.2,11.975-39.754,18.356-60.073,18.356a108.92,108.92,0,0,1-73.423-27.975c-1.472-1.374-.2-3.239,1.669-2.159a145.835,145.835,0,0,0,129.471,7.951c2.748-1.08,5.006,1.865,2.356,3.828Z" transform="translate(-0.739 -1.009)" fill="#f90" fill-rule="evenodd"/><path d="M346.819,322.164c-2.061-2.65-13.742-1.276-18.945-.589-1.571.2-1.865-1.178-.393-2.16,9.325-6.577,24.54-4.613,26.306-2.454s-.491,17.472-9.227,24.736c-1.374,1.08-2.65.491-2.061-.982C344.463,335.808,348.881,324.912,346.819,322.164Z" transform="translate(-4.75 -0.954)" fill="#f90" fill-rule="evenodd"/><path d="M323.577,272.327v-6.38a1.486,1.486,0,0,1,1.555-1.571h28.186a1.627,1.627,0,0,1,1.652,1.571v5.4c0,.883-.778,2.061-2.138,4.025l-14.579,21.006c5.443-.1,11.177.687,16.037,3.436a2.929,2.929,0,0,1,1.458,2.454v6.773c0,.982-.972,2.061-2.041,1.472a31.873,31.873,0,0,0-29.741.1c-.972.491-2.041-.491-2.041-1.472v-6.478a7.393,7.393,0,0,1,1.069-4.319L339.905,273.9H325.229a1.627,1.627,0,0,1-1.652-1.571ZM220.844,311.885h-8.553a1.763,1.763,0,0,1-1.555-1.472V266.045a1.627,1.627,0,0,1,1.652-1.571h7.97a1.591,1.591,0,0,1,1.555,1.472v5.791h.194c2.041-5.6,6.026-8.245,11.274-8.245,5.346,0,8.747,2.65,11.08,8.245a12.184,12.184,0,0,1,11.858-8.245,12.006,12.006,0,0,1,9.914,4.908c2.721,3.73,2.138,9.129,2.138,13.939v28.073a1.627,1.627,0,0,1-1.652,1.571h-8.456a1.679,1.679,0,0,1-1.555-1.571V286.854c0-1.865.194-6.577-.194-8.343-.68-2.945-2.527-3.828-5.054-3.828a5.725,5.725,0,0,0-5.151,3.632c-.875,2.258-.778,5.988-.778,8.54v23.558a1.627,1.627,0,0,1-1.652,1.571h-8.553a1.679,1.679,0,0,1-1.555-1.571V286.854c0-4.908.778-12.27-5.248-12.27-6.123,0-5.929,7.067-5.929,12.27v23.558a1.712,1.712,0,0,1-1.749,1.472Zm158.424-48.392c12.732,0,19.633,10.994,19.633,25.03,0,13.546-7.581,24.343-19.633,24.343-12.441,0-19.244-10.994-19.244-24.736-.1-13.84,6.8-24.638,19.244-24.638Zm0,9.129c-6.318,0-6.706,8.736-6.706,14.135s-.1,16.981,6.609,16.981c6.609,0,7-9.325,7-15.018a43.359,43.359,0,0,0-1.264-11.779c-.972-3.141-2.916-4.319-5.637-4.319Zm36.059,39.263h-8.553a1.679,1.679,0,0,1-1.555-1.571V265.848a1.686,1.686,0,0,1,1.652-1.472h7.97a1.666,1.666,0,0,1,1.555,1.276v6.773h.194c2.43-6.086,5.734-8.932,11.663-8.932a11.285,11.285,0,0,1,10.011,5.2c2.235,3.534,2.235,9.521,2.235,13.84v27.975a1.6,1.6,0,0,1-1.652,1.374h-8.553a1.775,1.775,0,0,1-1.555-1.374V286.364c0-4.908.583-11.975-5.346-11.975a5.628,5.628,0,0,0-4.957,3.534,20.56,20.56,0,0,0-1.361,8.442v23.951a1.786,1.786,0,0,1-1.749,1.571Zm-114.2-21.2c0,3.337.1,6.184-1.555,9.227a6.875,6.875,0,0,1-5.929,3.926c-3.3,0-5.248-2.552-5.248-6.282,0-7.362,6.512-8.736,12.732-8.736Zm8.65,21.1a1.744,1.744,0,0,1-2.041.2,21.62,21.62,0,0,1-4.957-5.791c-4.665,4.81-8.067,6.282-14.093,6.282-7.192,0-12.829-4.515-12.829-13.448a14.7,14.7,0,0,1,9.136-14.135c4.665-2.061,11.177-2.454,16.134-3.043v-1.08c0-2.061.194-4.515-1.069-6.282a5.733,5.733,0,0,0-4.762-2.258c-3.3,0-6.22,1.669-6.9,5.2-.194.785-.68,1.571-1.458,1.571l-8.261-.883a1.509,1.509,0,0,1-1.264-1.767c1.944-10.208,10.983-13.251,19.147-13.251,4.179,0,9.622,1.08,12.927,4.319,4.179,3.926,3.791,9.227,3.791,14.92v13.448c0,4.025,1.652,5.791,3.207,8.049.583.785.68,1.767,0,2.258-1.847,1.472-4.957,4.221-6.706,5.693Zm-120.908-21.1c0,3.337.1,6.184-1.555,9.227a6.875,6.875,0,0,1-5.929,3.926c-3.3,0-5.248-2.552-5.248-6.282,0-7.362,6.512-8.736,12.732-8.736Zm8.553,21.1a1.744,1.744,0,0,1-2.041.2,21.619,21.619,0,0,1-4.957-5.791c-4.665,4.81-8.067,6.282-14.093,6.282-7.192,0-12.829-4.515-12.829-13.448a14.7,14.7,0,0,1,9.136-14.135c4.665-2.061,11.177-2.454,16.134-3.043v-1.08c0-2.061.194-4.515-1.069-6.282a5.733,5.733,0,0,0-4.762-2.258c-3.3,0-6.22,1.669-6.9,5.2-.194.785-.68,1.571-1.458,1.571l-8.261-.883a1.509,1.509,0,0,1-1.264-1.767C167,266.143,176.038,263.1,184.2,263.1c4.179,0,9.622,1.08,12.927,4.319,4.179,3.926,3.791,9.227,3.791,14.92v13.448c0,4.025,1.652,5.791,3.207,8.049.583.785.68,1.767,0,2.258-1.847,1.472-4.957,4.221-6.706,5.693Z" fill-rule="evenodd"/></g></svg>