<svg xmlns="http://www.w3.org/2000/svg" width="277" height="65.627" viewBox="0 0 277 65.627"><path d="M0,47.618H6.531l2.3-6.6H19.8l2.22,6.6h6.695L17.746,17.971H11.132ZM14.336,25.28h.083l3.7,10.878h-7.6L14.336,25.28Zm16.93,22.338H37.3v-20.8h.082l7.189,20.8h4.971l7.189-21.011h.082V47.618h6.039V17.971H53.778l-6.49,20.388H47.2L40.345,17.971H31.266Zm37.276,0H90.806V42.135H74.992V34.871H89.206V29.8H74.992V23.451H90.479v-5.48H68.542Zm26.632,0h6.449V36.033h6.45c3.245,0,4.437,1.371,4.888,4.483.329,2.367.247,5.233,1.028,7.1h6.448c-1.149-1.661-1.108-5.15-1.232-7.019-.206-2.988-1.109-6.1-4.272-6.933v-.083c3.245-1.329,4.641-3.943,4.641-7.432,0-4.486-3.327-8.179-8.586-8.179H95.174V47.618Zm6.449-24.58h7.066c2.876,0,4.436,1.244,4.436,4.11,0,2.988-1.561,4.234-4.436,4.234h-7.066V23.038Zm23.221,24.58h6.449V17.971h-6.449V47.618Zm37.92-19.681c-.781-6.851-6.2-10.671-12.653-10.671-9.078,0-14.419,6.851-14.419,15.652,0,8.554,5.341,15.4,14.419,15.4,7.189,0,12.242-4.734,12.9-12.123h-6.244c-.493,3.9-2.711,6.642-6.656,6.642-5.792,0-7.969-4.983-7.969-9.923,0-5.189,2.177-10.172,7.969-10.172a6.353,6.353,0,0,1,6.408,5.191h6.245ZM164.3,47.618h6.531l2.3-6.6H184.1l2.218,6.6h6.7L182.043,17.971h-6.614L164.3,47.618ZM178.634,25.28h.082l3.7,10.878h-7.6l3.821-10.878Zm16.929,22.338H201.6V27.771h.082l12.2,19.847h6.449V17.971H214.3V37.858h-.082L201.971,17.971h-6.408V47.618Zm27.33,0h6.531l2.3-6.6h10.968l2.219,6.6h6.694L240.64,17.971h-6.614ZM237.231,25.28h.081l3.7,10.878h-7.6l3.822-10.878Zm15.081,12.5c-.084,7.309,6,10.546,12.488,10.546,7.97,0,12.2-4.068,12.2-9.508,0-6.727-6.574-8.1-8.709-8.637-7.352-1.91-8.749-2.2-8.749-4.483,0-2.491,2.382-3.364,4.435-3.364,3.082,0,5.587.913,5.792,4.484h6.246c0-6.851-5.629-9.549-11.749-9.549-5.3,0-10.969,2.905-10.969,8.967,0,5.565,4.4,7.266,8.749,8.43,4.313,1.162,8.709,1.7,8.709,4.9,0,3.031-3.451,3.695-5.711,3.695-3.451,0-6.489-1.538-6.489-5.481h-6.243ZM1.158,0H276.651V6.983H1.158Zm0,58.643H276.651v6.984H1.158V58.643Z" fill="#cc2229" fill-rule="evenodd"/></svg>