<svg xmlns="http://www.w3.org/2000/svg" width="147.894" height="181.413" viewBox="0 0 147.894 181.413"><path d="M81.6,15.787C93.521.077,110.092,0,110.092,0s2.465,14.77-9.377,29C88.071,44.192,73.7,41.706,73.7,41.706S71,29.757,81.6,15.787ZM75.216,52.053c6.132,0,17.513-8.429,32.327-8.429,25.5,0,35.531,18.144,35.531,18.144a39.394,39.394,0,0,0-19.62,34.371c0,27.458,24.441,36.92,24.441,36.92s-17.085,48.088-40.162,48.088c-10.6,0-18.839-7.143-30.007-7.143-11.381,0-22.675,7.409-30.03,7.409C26.622,181.414,0,135.8,0,99.13c0-36.076,22.534-55,43.67-55,13.74,0,24.4,7.924,31.546,7.924Z" fill="#999"/></svg>