<svg xmlns="http://www.w3.org/2000/svg" width="277" height="116.092" viewBox="0 0 277 116.092"><g transform="translate(-0.1 -0.1)"><path d="M38.867,26.309C17.721,26.309.1,35.279.1,62.345c0,21.442,11.849,34.944,39.312,34.944C71.738,97.289,73.81,76,73.81,76H58.147s-3.358,11.466-19.69,11.466c-13.3,0-22.869-8.986-22.869-21.58H75.449v-7.9c0-12.46-7.91-31.668-36.582-31.668Zm-.547,10.1c12.662,0,21.294,7.757,21.294,19.383H15.934C15.934,43.45,27.2,36.41,38.32,36.41Z" transform="translate(0 -2.151)" fill="#e53238"/><path d="M75.438.1V83.7c0,4.745-.339,11.408-.339,11.408H90.038s.537-4.785.537-9.159c0,0,7.381,11.548,27.451,11.548,21.134,0,35.49-14.674,35.49-35.695,0-19.557-13.186-35.286-35.456-35.286-20.854,0-27.334,11.261-27.334,11.261V.1ZM114.2,36.853c14.352,0,23.479,10.652,23.479,24.946,0,15.328-10.541,25.355-23.376,25.355-15.318,0-23.581-11.961-23.581-25.219,0-12.354,7.414-25.082,23.478-25.082Z" transform="translate(-7.724)" fill="#0064d2"/><path d="M190.645,26.309c-31.812,0-33.852,17.418-33.852,20.2h15.834s.83-10.169,16.926-10.169c10.459,0,18.564,4.788,18.564,13.991v3.276H189.553c-24.645,0-37.674,7.21-37.674,21.841,0,14.4,12.038,22.232,28.307,22.232,22.172,0,29.314-12.251,29.314-12.251,0,4.873.375,9.675.375,9.675h14.076s-.545-5.952-.545-9.76V52.432C223.406,30.85,206,26.309,190.645,26.309Zm17.472,37.128V67.8c0,5.7-3.516,19.861-24.212,19.861-11.333,0-16.192-5.656-16.192-12.217,0-11.935,16.363-12.012,40.4-12.012Z" transform="translate(-15.196 -2.168)" fill="#f5af02"/><path d="M214.879,29.041h17.813l25.565,51.218,25.506-51.218H299.9l-46.459,91.184H236.514L249.92,94.806,214.879,29.041Z" transform="translate(-22.8 -4.033)" fill="#86b817"/></g></svg>