<svg xmlns="http://www.w3.org/2000/svg" width="151.5" height="175.948" viewBox="0 0 151.5 175.948"><g transform="translate(0 -0.9)"><path d="M137.767.9H13.733C3.735.9,0,4.635,0,14.688V136.031a28.678,28.678,0,0,0,.165,3.186c.22,2.2.275,4.34,2.307,6.757.22.22,2.307,1.813,2.307,1.813,1.1.549,1.868.934,3.131,1.483l61.028,25.6c3.186,1.428,4.5,2.032,6.811,1.978,2.307.055,3.625-.494,6.811-1.978l61.028-25.6a33.288,33.288,0,0,0,3.131-1.483s2.087-1.538,2.307-1.813c2.032-2.417,2.087-4.559,2.307-6.757a28.678,28.678,0,0,0,.165-3.186V14.688C151.5,4.635,147.82.9,137.767.9" transform="translate(0)" fill="#5f5f5f"/><path d="M147.175,141.606l-.055.275-.055.33-.055.275-.11.275-.055.275-.11.275-.11.275-.11.22-.11.275-.165.22-.165.22-.165.22-.165.22-.165.22-.22.22-.165.165-.22.22-.22.165-.22.165-.22.11-.22.165-.275.165-.275.11-.275.165-.275.11-.275.11-.275.11V147.1l-.275.11-.275.055-.494.11-.275.055-.275.055-.275.055-.275.055-.33.055-.275.055h-1.1l-.275-.055H138l-.275-.055-.275-.055-.33-.055-.275-.055-.275-.055-.275-.055-.275-.055-.275-.055-.275-.055-.275-.11-.275-.055-.275-.11-.275-.11-.275-.11-.275-.11-.275-.11-.275-.11-.275-.11-.275-.11-.275-.11-.275-.11-.275-.165-.22-.165-.275-.165-.22-.165-.22-.165-.22-.165-.22-.165-.22-.165-.22-.165-.22-.165-.22-.22.165-.22.22-.22.165-.22.22-.22.165-.22.165-.22.22-.22.165-.22.22-.22.165-.22.22-.22.165-.22.165-.22.22-.22.165-.22.22-.22.165-.22.22.165.275.165.22.165.275.165.22.165.275.165.22.165.275.11.22.165.275.11.275.11.275.11.275.11.275.11.275.11.275.11.275.11.275.055.549.11.33.055.275.055h.275l.33.055h.6l.33-.055.275-.055.275-.055.275-.055.22-.11.22-.11.22-.165.165-.22.11-.22.11-.275.055-.275v-.055l-.055-.33-.11-.275-.165-.22-.22-.165-.22-.165-.22-.11-.275-.11-.275-.11-.33-.165-.22-.055-.22-.055-.275-.11-.275-.055-.275-.11-.275-.055-.33-.11-.275-.055-.33-.11-.275-.055-.275-.11-.275-.055-.275-.11-.275-.11-.275-.055-.275-.11-.275-.11-.275-.11-.33-.11-.275-.11-.275-.11-.275-.11-.275-.165-.275-.165-.22-.165-.275-.165-.22-.165-.22-.165-.22-.165-.22-.22-.22-.22-.165-.22-.165-.22-.165-.22-.165-.22-.165-.275-.11-.22-.11-.22-.055-.275-.11-.22-.055-.275-.055-.275-.055-.275-.055-.275-.055-.33v-.659l.055-.275.055-.275.055-.275.055-.275.055-.275.11-.275.055-.275.11-.275.11-.275.11-.275.165-.275.165-.275.165-.22.165-.22.22-.22.22-.22.22-.22.22-.22.22-.165.22-.165.22-.165.22-.165.275-.165.275-.11.275-.165.275-.11.275-.11.275-.11.275-.11.22-.055.275-.055.275-.055.275-.055.275-.055.275-.055.275-.055.275-.055.275-.055h1.208l.33.055.33.055h.275l.33.055.275.055.33.055.275.055.275.055.275.055.275.055.275.055.275.11.275.11.275.055.275.11.275.11.275.11.275.11.275.11.275.165.22.11.275.165.275.165.22.165.275.165.22.165.22.165.22.165.22.165-.165.22-.165.22-.165.22-.165.22-.165.275-.165.22-.165.22-.165.22-.165.22-.165.22-.165.22-.165.22-.165.275-.165.22-.165.22-.549,1.208-.165.22-.22-.165-.275-.165-.22-.165-.22-.165-.275-.11-.22-.165-.275-.11-.22-.11-.275-.11-.22-.11-.275-.11-.22-.11-.33-.11-.275-.11-.275-.11-.275-.055-.165.11-.275-.055-.275-.055L138.88,131l-.275-.055H138l-.33.055-.275.055-.275.055-.22.11-.22.11-.275.22-.165.275-.11.275-.055.275v.055l.055.385.11.33.11.165.22.22.275.165.22.165.275.11.33.11.33.11.22.055.22.11.275.055.275.11.275.055.33.11.33.11.33.11.33.055.275.11.33.11.275.055.275.11.275.11.275.11.275.11.275.11.275.055.33.11.275.165.275.11.275.165.275.165.275.165.22.165.22.165.22.165.22.22.22.22.22.22.22.22.165.22.165.275.165.22.165.275.11.22.11.275.055.275.055.275.11.549.055.275.055.33v.659l-.385-.33Zm-19.5,5.6H111.689V126.829h16.095v4.614H117.018v3.351h9.668v4.34h-9.668v3.461h10.931v4.614Zm-20.379,0h-5.109v-12.03l-.165.22-.165.275-.165.22-.165.22-.165.275-.165.22-.165.22-.165.275-.165.22-.165.22-.165.22-.165.275-.165.22-.165.22-.165.275-.165.22-.165.22-.165.275-.11.22-.165.22-.165.275-.165.22-.165.22-.165.275-.165.22-.11.22-.165.22-.165.275-.165.22-.165.22-.11.275-.165.22-.165.22-.165.275-.165.22h-.11l-.165-.275-.165-.22-.165-.275-.165-.22-.165-.275-.165-.22-.165-.275-.165-.22-.165-.275-.11-.22-.165-.275-.165-.22-.165-.275.275-.275-.165-.275-.165-.22-.165-.275-.165-.22-.165-.275-.165-.22-.11-.165-.165-.22-.165-.275-.165-.22-.165-.275-.165-.22-.165-.275-.11-.165-.165-.275-.165-.22-.165-.275-.165-.22-.165-.275-.165-.22v11.975H86.2V126.774h5.713l.165.22.165.275.165.22.165.275.165.22.165.275.165.22.165.275.165.22.165.22.165.275.165.22.165.275.165.22.165.275.165.22.165.22.165.275.165.22.165.275.165.22.165.275.165.22.11.275.165.22.11.22.165.275.165.22.165.275.165.22.11.275.165.22.165.275.165.22.165-.22.165-.275.165-.22.165-.275.165-.22.165-.275.165-.22.165-.275.165-.22.11-.22.165-.275.165-.22.165-.275.165-.22.165-.275.165-.22.165-.275.165-.22.165-.22.165-.275.165-.22.165-.275.165-.22.165-.275.11-.22.165-.22.165-.275.165-.22.165-.275.165-.22.165-.275.165-.22.165-.275.165-.22h5.713v20.379l-1.263.055ZM75,138.8l-.11-.275-.11-.275-.11-.275-.11-.275-.11-.275-.11-.275-.11-.275-.11-.275-.11-.275-.11-.275-.11-.275-.11-.275-.11-.275-.11-.275-.11-.275-.11-.275-.11-.275-.11-.275-.11-.275-.11-.275-.11-.275-.11-.275-.11.275-.11.275-.11.275-.11.275-.11.275-.11.275-.11.275-.11.275-.11.275-.11.275-.11.275-.11.275-.11.275-.11.275-.11.275-.11.275-.11.275-.11.275-.11.275-.11.275-.11.275-.11.275-.11.275h4.724L75,138.8Zm8.734,8.4H78.291l-.11-.275-.11-.275-.11-.275-.11-.275-.11-.275-.11-.275-.11-.275-.11-.275-.11-.275-.11-.275-.11-.275-.11-.275-.11-.275-.11-.275-.11-.275h-7.91l-.11.275-.11.275-.11.275-.11.275-.11.275-.22.494-.11.275-.11.275-.11.275-.11.275-.11.275-.11.275-.11.275-.11.275H61.592l.11-.275.22-.494.11-.275.11-.275.22-.494.11-.275.11-.275.11-.275.11-.165.11-.275.11-.275.11-.275.11-.275.11-.275.11-.275.11-.275.11-.275.11-.275.11-.275.11-.275.22-.494.11-.275.11-.275.11-.275.11-.275.11-.275.11-.275.11-.275.11-.275.11-.275.11-.275.11-.275.11-.275.11-.275.11-.275.11-.275.11-.275.11-.275.11-.275.11-.275.11-.275.11-.275.11-.275.11-.275.11-.275.11-.275.11-.275.11-.275.11-.275.11-.275.11-.275.11-.275.11-.275.22-.494.11-.275.11-.275.11-.275.11-.275.11-.275.11-.275.11-.275.11-.275.11-.275.11-.275.055-.275.11-.275.11-.275.11-.275.11-.275.11-.275.11-.275.11-.275.11-.275.22-.494.11-.275H75.49l.11.275.11.275.11.275.11.275.11.275.11.275.11.275.11.275.11.275.11.275.11.275.11.275.11.275.11.275.11.275.11.275.11.275.11.275.11.275.11.275.11.275.11.275.11.275.11.275.11.275.11.275.11.275.11.275.11.275.11.275.22.494.11.275.11.275.11.275.11.275.11.275.11.275.11.275.11.275.11.275.11.275.11.275.11.275.11.275.11.275.11.275.11.275.11.275.11.275.11.275.11.275.11.275.11.275.11.275.11.275.11.275.11.275.11.275.11.275.11.275.11.275.11.275.11.275.11.275.11.275.11.275.11.275.11.275.11.275.11.275.11.275.11.275.11.275.11.275.11.275.11.275.11.275.22.494-.549-.22ZM59.34,144.572l-.22.165-.22.165-.22.165-.22.165-.22.165-.22.165-.22.165-.275.165-.275.165-.275.165-.275.11-.275.165-.275.11-.275.11-.275.11-.275.11-.275.11-.275.11-.275.11-.275.11-.275.11-.275.055-.275.055-.275.055-.275.055-.275.055-.33.055-.275.055-.33.055-.275.055-.33.055h-.879l-.275-.055-.33-.055-.275-.055-.275-.055-.275-.055-.275-.055-.275-.055-.275-.055-.275-.055-.275-.055-.275-.055-.275-.11-.275-.11-.275-.11-.275-.11-.275-.11-.275-.11-.275-.11-.275-.165-.22-.11-.275-.165-.22-.165-.22-.165-.22-.165-.22-.165-.22-.165-.22-.165-.22-.165-.22-.22-.22-.165-.22-.22-.22-.22-.165-.22-.165-.22-.165-.22-.165-.22-.165-.22-.165-.22-.11-.22-.165-.275-.165-.22-.11-.275-.11-.275-.11-.275-.11-.275-.11-.22-.11-.275-.055-.275-.11-.275-.055-.275-.11-.275-.055-.275v-.275l-.055-.275v-.275l-.055-.275v-2.362l.055-.33.055-.275.055-.275.055-.275.11-.275.055-.275.11-.275.11-.275.11-.275.11-.275.11-.275.11-.275.11-.275.11-.275.165-.275.165-.22.11-.22.165-.22.165-.22.165-.22.165-.22.165-.22.165-.22.22-.22.165-.22.22-.22.22-.22.22-.165.22-.22.22-.165.22-.165.22-.165.22-.165.22-.165.22-.165.275-.165.275-.165.275-.165.275-.11.275-.11.275-.165.22-.11.275-.11.275-.11.275-.055.275-.11.275-.055.275-.11.275-.055.275-.055.275-.055.275-.055.275-.055.275-.055.275-.055h1.154l.33.055.33.055H52.2l.275.055.33.055.275.055.275.055.275.055.275.055.275.055.275.055.275.11.275.055.22.11.275.11.494.22.275.11.275.165.275.11.22.165.275.165.22.165.275.165.22.165.22.165.22.165.22.165.22.22.22.165-.165.22-.22.22-.165.22-.22.22-.165.22-.165.22-.22.22-.165.22-.165.22-.22.22-.165.22-.22.22-.165.22-.165.22-.22.22-.165.22-.22.22-.165.22-.22-.165-.22-.22-.22-.165-.22-.165-.22-.165-.22-.165-.22-.165-.275-.165-.22-.11-.22-.11-.22-.11-.275-.11-.275-.11-.275-.055-.275-.055-.275-.055-.275-.055-.33-.055-.33-.055h-.6l-.275.055-.275.055-.275.055-.275.055-.275.11-.275.11-.22.659-.275.11-.22.165-.22.165-.22.165-.22.165-.22.165-.22.165-.165.22-.22.22-.165.22-.165.22-.165.22-.11.275-.165.22-.11.275-.11.275-.11.275-.11.275-.055.275-.055.275-.055.33v2.032l.055.275.055.275.055.275.11.275.33-.11.11.275.11.275.165.275.275.439.165.22.165.22.22.22.165.22.22.165.22.165.22.165.22.165.22.165.275.11.275.11.275.11.275.11.275.11.275.055.275.055.275.055.33.055h.494l.33-.055.33-.055.275-.055.275-.055.275-.055.275-.055.275-.055.275-.11.22-.11.275-.11.22-.11.22-.165v-2.747H50.441v-4.065H59.5v9.119l-.165.11Zm-8.954-63.83H62.471V71.4H50.386V52.343H62.965V43H40.114v67.4H63.13v-9.338H50.386V80.742m86.462,2.032V97.99c0,2.692-1.263,3.955-3.845,3.955H131.08c-2.692,0-3.955-1.263-3.955-3.955V55.419c0-2.692,1.263-3.955,3.955-3.955h1.7c2.582,0,3.845,1.263,3.845,3.955V68.6H146.68V54.814c0-8.35-4.01-12.414-12.359-12.414h-5c-8.35,0-12.469,4.12-12.469,12.524V98.43c0,8.4,4.12,12.524,12.469,12.524h5.054c8.35,0,12.469-4.12,12.469-12.524V82.719h-10M101.252,43h10.272v67.4H101.252ZM86.366,72.942c0,2.692-1.263,3.955-3.845,3.955h-4.23V52.068h4.23c2.582,0,3.845,1.263,3.845,3.955ZM84.169,43H68.074v67.4H78.346V85.96h5.823c8.35,0,12.469-4.12,12.469-12.524V55.529c0-8.4-4.12-12.524-12.469-12.524ZM64.284,171.323h58.721l-29.937,9.888-28.784-9.888" transform="translate(-17.757 -18.704)" fill="#fff"/></g></svg>