<svg xmlns="http://www.w3.org/2000/svg" width="277" height="66.295" viewBox="0 0 277 66.295">
  <g id="Grupo_162" data-name="Grupo 162" transform="translate(-25 1176.06)">
    <path id="Caminho_48" data-name="Caminho 48" d="M341.339,327.818c1.553,0,2.832-.808,3-1.851l1.534-17.345c0-1.714-2.008-3.122-4.533-3.122s-4.529,1.407-4.529,3.122l1.533,17.344c.169,1.043,1.447,1.851,3,1.851h-.005m-9.374,5.418c.779-1.344.72-2.854-.1-3.525l-14.256-10c-1.482-.858-3.7.175-4.966,2.362s-1.041,4.625.437,5.483l15.786,7.35c.987.366,2.332-.338,3.105-1.681l0,.01m18.757-.009c.778,1.343,2.117,2.047,3.1,1.681l15.786-7.35c1.488-.858,1.7-3.3.445-5.483s-3.494-3.221-4.972-2.362l-14.257,10c-.815.67-.876,2.181-.1,3.525l0-.01m-9.383,16.258c1.553,0,2.832.8,3,1.845l1.534,17.342c0,1.72-2.008,3.124-4.533,3.124s-4.529-1.4-4.529-3.124l1.533-17.342c.169-1.044,1.447-1.845,3-1.845h-.005m9.383-5.419c.778-1.346,2.117-2.045,3.1-1.674l15.786,7.345c1.488.859,1.7,3.3.445,5.488s-3.494,3.216-4.972,2.359l-14.257-9.991c-.815-.675-.876-2.187-.1-3.53h-.006m-18.755,0c.779,1.341.72,2.854-.1,3.53l-14.256,9.991c-1.482.857-3.7-.181-4.966-2.359s-1.041-4.629.437-5.488l15.786-7.345c.987-.37,2.332.328,3.105,1.675h0" transform="translate(-73.254 -1481.56)" fill="#fdbb30"/>
    <path id="Caminho_49" data-name="Caminho 49" d="M-229.428,378.6a5.512,5.512,0,0,1-.193,1.563,5.476,5.476,0,0,1-5.272,3.7,3.567,3.567,0,0,1-3.881-3.823c0-3.971,4.371-5.068,9.347-5.04v3.6Zm7.8-6.921c0-6.548-2.8-12.31-12.252-12.31a22.378,22.378,0,0,0-10.807,2.578l1.54,5.264A15.824,15.824,0,0,1-235.261,365c4.8-.013,5.581,2.716,5.581,4.462v.413c-10.454-.015-17.062,3.6-17.062,10.978,0,4.506,3.366,8.726,9.216,8.726a10.469,10.469,0,0,0,8.408-3.736h.178s1.192,5,7.775,3.084a42.461,42.461,0,0,1-.456-6.961V371.682M-384.5,350.454s6.831,27.991,7.922,32.534c1.272,5.3,3.566,7.254,10.175,5.936l4.265-17.353c1.082-4.312,1.805-7.387,2.5-11.77h.121a115.148,115.148,0,0,0,2.073,11.784s1.735,7.879,2.626,12.015,3.372,6.744,9.846,5.324l10.164-38.471h-8.2l-3.471,16.634c-.933,4.84-1.779,8.626-2.432,13.053h-.116c-.593-4.388-1.349-8.019-2.3-12.736l-3.611-16.95h-8.549l-3.865,16.523c-1.094,5.022-2.12,9.076-2.77,13.356h-.118c-.667-4.03-1.555-9.127-2.516-13.986,0,0-2.295-11.819-3.1-15.893H-384.5m65.212,28.149a5.436,5.436,0,0,1-.2,1.563,5.475,5.475,0,0,1-5.272,3.7,3.565,3.565,0,0,1-3.878-3.823c0-3.971,4.37-5.068,9.346-5.04v3.6Zm7.8-6.921c0-6.548-2.8-12.31-12.251-12.31a22.384,22.384,0,0,0-10.81,2.578l1.538,5.264A15.822,15.822,0,0,1-325.125,365c4.8-.013,5.584,2.716,5.584,4.462v.413c-10.458-.015-17.063,3.6-17.063,10.978,0,4.506,3.364,8.726,9.21,8.726a10.476,10.476,0,0,0,8.413-3.736h.176s1.2,5,7.776,3.084a42.4,42.4,0,0,1-.456-6.961V371.682m13.024,9.076v-30.3h-7.814v38.471h7.814v-8.168m102.216-30.3v28.38c0,3.915.738,6.654,2.312,8.331a8.659,8.659,0,0,0,6.361,2.415,18.615,18.615,0,0,0,5.655-.839l-.1-6.1a11.94,11.94,0,0,1-2.968.353c-2.663,0-3.553-1.706-3.553-5.218V366.912h6.8V359.55h-6.8v-9.1h-7.707m-20.168,9.57v28.9h8.06v-14.8a10.961,10.961,0,0,1,.175-2.134,6.082,6.082,0,0,1,6.372-5.081,15.008,15.008,0,0,1,2.325.2V359.55a7.852,7.852,0,0,0-1.775-.178,8.506,8.506,0,0,0-7.866,6.1h-.218v-5.453h-7.072m-76.577,0v28.9h7.853V371.978a6.82,6.82,0,0,1,.369-2.365,5.32,5.32,0,0,1,4.773-3.7c3.17,0,4.651,2.679,4.651,6.545v16.471h7.847V371.769a7.99,7.99,0,0,1,.328-2.343,4.95,4.95,0,0,1,4.711-3.521c3.212,0,4.754,2.632,4.754,7.183v15.834h7.852V371.9c0-8.976-4.558-12.53-9.7-12.53a10.478,10.478,0,0,0-5.7,1.567,12.227,12.227,0,0,0-3.661,3.6h-.116A8.241,8.241,0,0,0-277,359.372a9.1,9.1,0,0,0-8.417,4.579h-.117v-3.927h-7.454" transform="translate(409.5 -1512.602)" fill="#1a75cf"/>
    <path id="Caminho_50" data-name="Caminho 50" d="M508.364,467.129h.119c.157,0,.258-.065.258-.162s-.095-.17-.241-.17c-.05,0-.1.01-.136.01v.321Zm-.018.779h-.417v-1.36a3.287,3.287,0,0,1,.6-.052.92.92,0,0,1,.546.111.352.352,0,0,1,.147.3c0,.14-.128.258-.318.309v.017a.4.4,0,0,1,.283.35,1.377,1.377,0,0,0,.094.327h-.473a.9.9,0,0,1-.093-.291c-.027-.138-.092-.207-.231-.207h-.137v.5Zm.173-1.8a1.079,1.079,0,1,0,.009,0h-.009Zm.027-.369a1.572,1.572,0,1,1-.011,0h.009" transform="translate(-208.047 -1592.211)" fill="#fdbb30"/>
  </g>
</svg>
