<svg id="microsoft" xmlns="http://www.w3.org/2000/svg" width="277.617" height="59.268" viewBox="0 0 277.617 59.268">
  <path id="Caminho_62" data-name="Caminho 62" d="M487.4,52.048V47.166H481.34v-7.59l-.2.063-5.695,1.742-.112.034v5.751h-8.988v-3.2a5.089,5.089,0,0,1,.991-3.395,3.5,3.5,0,0,1,2.778-1.135,6.471,6.471,0,0,1,2.635.6l.224.1V34.99l-.105-.039a10.27,10.27,0,0,0-3.367-.45,9.871,9.871,0,0,0-4.776,1.148,8.165,8.165,0,0,0-3.278,3.24,9.659,9.659,0,0,0-1.161,4.754v3.522h-4.222v4.882h4.222V72.616h6.06V52.048h8.988V65.119c0,5.383,2.539,8.111,7.547,8.111a12.381,12.381,0,0,0,2.573-.285,7.11,7.11,0,0,0,1.874-.594l.08-.047V67.376l-.247.163a4.245,4.245,0,0,1-1.219.531,4.63,4.63,0,0,1-1.2.2,3.247,3.247,0,0,1-2.579-.94,5.061,5.061,0,0,1-.821-3.27V52.048ZM442.524,68.275a6.429,6.429,0,0,1-5.156-2.166,9.2,9.2,0,0,1-1.853-6.118,9.562,9.562,0,0,1,1.853-6.28,6.327,6.327,0,0,1,5.106-2.2,6.231,6.231,0,0,1,4.973,2.1c1.2,1.4,1.815,3.5,1.815,6.229,0,2.764-.575,4.887-1.708,6.307a6.078,6.078,0,0,1-5.031,2.125m.269-21.722c-4.2,0-7.53,1.23-9.907,3.655s-3.579,5.782-3.579,9.978c0,3.985,1.175,7.19,3.494,9.525a12.675,12.675,0,0,0,9.378,3.519c4.068,0,7.335-1.247,9.711-3.706a13.668,13.668,0,0,0,3.579-9.878c0-4.047-1.129-7.276-3.357-9.6s-5.365-3.5-9.318-3.5m-23.257,0a10.956,10.956,0,0,0-7.02,2.17,6.923,6.923,0,0,0-2.735,5.646,7.9,7.9,0,0,0,.59,3.156,6.34,6.34,0,0,0,1.811,2.366,15.761,15.761,0,0,0,3.684,2.061,27.444,27.444,0,0,1,3.064,1.427,4.259,4.259,0,0,1,1.349,1.108,2.487,2.487,0,0,1,.375,1.443c0,1.71-1.28,2.542-3.915,2.542a10.763,10.763,0,0,1-3.313-.606,12.446,12.446,0,0,1-3.393-1.72l-.252-.18V71.8l.092.043a15.013,15.013,0,0,0,3.213.992,17.234,17.234,0,0,0,3.431.4,11.633,11.633,0,0,0,7.413-2.182,7.058,7.058,0,0,0,2.76-5.781,6.648,6.648,0,0,0-1.485-4.373,12.728,12.728,0,0,0-5.045-3.212,13.007,13.007,0,0,1-3.594-1.869,2.615,2.615,0,0,1-.725-1.96,2.184,2.184,0,0,1,.92-1.813,4.133,4.133,0,0,1,2.579-.728,10.557,10.557,0,0,1,3.07.472,9.866,9.866,0,0,1,2.681,1.243l.248.169V47.662l-.1-.041a13.221,13.221,0,0,0-2.723-.759,16.62,16.62,0,0,0-2.985-.309M393.981,68.275a6.429,6.429,0,0,1-5.156-2.166,9.2,9.2,0,0,1-1.852-6.118,9.56,9.56,0,0,1,1.853-6.28,6.323,6.323,0,0,1,5.106-2.2,6.231,6.231,0,0,1,4.972,2.1c1.2,1.4,1.815,3.5,1.815,6.229,0,2.764-.575,4.887-1.708,6.307a6.077,6.077,0,0,1-5.031,2.125m.27-21.722c-4.2,0-7.531,1.23-9.907,3.655s-3.58,5.782-3.58,9.978c0,3.986,1.176,7.19,3.495,9.525a12.675,12.675,0,0,0,9.378,3.519c4.068,0,7.335-1.247,9.711-3.706a13.67,13.67,0,0,0,3.579-9.878c0-4.047-1.13-7.276-3.358-9.6s-5.365-3.5-9.317-3.5m-22.686,5.021V47.166h-5.987v25.45h5.987V59.6a9.073,9.073,0,0,1,1.492-5.406,4.577,4.577,0,0,1,3.872-2.045,7.03,7.03,0,0,1,1.8.265,4.553,4.553,0,0,1,1.4.564l.252.182V47.122l-.1-.042a6.2,6.2,0,0,0-2.344-.356,6.134,6.134,0,0,0-4,1.435,8.109,8.109,0,0,0-2.3,3.414Zm-16.707-5.021a14.778,14.778,0,0,0-7.28,1.75,11.791,11.791,0,0,0-4.8,4.937,15.725,15.725,0,0,0-1.649,7.314,13.493,13.493,0,0,0,1.6,6.556,11.263,11.263,0,0,0,4.48,4.529,13.335,13.335,0,0,0,6.545,1.591,14.33,14.33,0,0,0,7.222-1.691l.079-.045V66.01l-.252.184a11.254,11.254,0,0,1-2.929,1.525,8.85,8.85,0,0,1-2.869.556,7.372,7.372,0,0,1-5.6-2.184,8.5,8.5,0,0,1-2.067-6.052,8.813,8.813,0,0,1,2.155-6.212,7.332,7.332,0,0,1,5.615-2.317,9.615,9.615,0,0,1,5.7,1.982l.251.182V47.894l-.081-.046a9.879,9.879,0,0,0-2.77-.937,16.544,16.544,0,0,0-3.346-.359M337,47.166h-5.987v25.45H337V47.166Zm-2.932-10.842a3.607,3.607,0,0,0-2.551,1,3.3,3.3,0,0,0-1.069,2.5,3.207,3.207,0,0,0,1.058,2.448,3.646,3.646,0,0,0,2.562.975,3.692,3.692,0,0,0,2.573-.974,3.194,3.194,0,0,0,1.071-2.449,3.363,3.363,0,0,0-1.042-2.469,3.571,3.571,0,0,0-2.6-1.027m-14.937,8.964V72.616h6.11V37.1h-8.456L306.041,63.481,295.61,37.1h-8.8V72.616h5.741V45.286h.2l11.014,27.33H308.1l10.842-27.327h.2Z" transform="translate(-209.786 -25.236)" fill="#706d6e"/>
  <path id="Caminho_63" data-name="Caminho 63" d="M28.163,28.163H0V0H28.163Z" fill="#f1511b"/>
  <path id="Caminho_64" data-name="Caminho 64" d="M143.95,28.163H115.788V0H143.95Z" transform="translate(-84.693)" fill="#80cc28"/>
  <path id="Caminho_65" data-name="Caminho 65" d="M28.162,143.99H0V115.828H28.162Z" transform="translate(0 -84.722)" fill="#00adef"/>
  <path id="Caminho_66" data-name="Caminho 66" d="M143.95,143.99H115.788V115.828H143.95Z" transform="translate(-84.693 -84.722)" fill="#fbbc09"/>
</svg>
